# xmcd
#
# Track frame offsets:
#	150
#	9615
#	21191
#	32001
#	43960
#	56254
#	66514
#	74879
#	88262
#	101169
#	114377
#	125445
#	137383
#	152020
#	165170
#	175416
#	189040
#	205374
#	217305
#	229188
#	237455
#	249324
#	261381
#	272497
#	286024
#
# Disc length: 3990
#
# Revision: 1
# Processed by: cddbd v1.5.1PL0 Copyright (c) Steve Scherf et al.
# Submitted via: ExactAudioCopy v0.95a5
# Normalized: r0:TDELIM( - )
#
DISCID=700f9419
DTITLE=Various Artist - The Best Of Country Music
DYEAR=2004
DGENRE=Country
TTITLE0=Lester Flatt and Earl Scruggs - Foggy Mountain Special
TTITLE1=Carl Smith - Hey Joe
TTITLE2=The Statler Brothers - Flowers On The Wall
TTITLE3=Bill Monroe and His Bluegrass Boys - Rocky Road Blues
TTITLE4=Bob Wills and His Texas Playboys - Take Me Back To Tulsa
TTITLE5=Johnny Horton - Honky Tonk Man
TTITLE6=Willie Nelson - Things to Remember
TTITLE7=Jim and Jesse McReynolds - When I Stop Dreaming
TTITLE8=Johny Bond and His Red River Valley Boys - Smoke! Smoke! Smoke! (That Cigarette)
TTITLE9=Ray Price - Sheriff of Boone County
TTITLE10=M. Smith and Willie Nelson - Heaven
TTITLE11=Roy Acuff - Wabash Cannonball
TTITLE12=Willie Nelson - My Heroes Have Always Been Cowboys
TTITLE13=Lynn Anderson - I Never Promised You a Rose Garden
TTITLE14=Kenny Rogers - New Design
TTITLE15=Asleep at the Wheel - Choo Choo Ch'Boogie
TTITLE16=Ray Charles and Marty Paich Orchestra - Your Cheatin' Heart
TTITLE17=Johnny Cash - Ring of Fire
TTITLE18=S. Buono - Ode to 10-33
TTITLE19=The Statler Brothers - Sugar
TTITLE20=Ray Price - My Shoes Keep Walking Back to You
TTITLE21=Kenny Rogers - Me and Bobby McGee
TTITLE22=Roger Miller - King of the Road
TTITLE23=Kenny Rogers - Ruby, Don't Take Your Love to Town
TTITLE24=Ray Charles and Margie Hendrix - You Are My Sunshine
EXTD=
EXTT0=
EXTT1=
EXTT2=
EXTT3=
EXTT4=
EXTT5=
EXTT6=
EXTT7=
EXTT8=
EXTT9=
EXTT10=
EXTT11=
EXTT12=
EXTT13=
EXTT14=
EXTT15=
EXTT16=
EXTT17=
EXTT18=
EXTT19=
EXTT20=
EXTT21=
EXTT22=
EXTT23=
EXTT24=
PLAYORDER=
